<svg id="Camada_1" data-name="Camada 1" xmlns="http://www.w3.org/2000/svg" viewBox="0 0 817.74 982"><defs><style>.cls-1{fill:#455056;}.cls-2{fill:#54adf5;}.cls-3{fill:#479ce0;}.cls-4{fill:#5db1f5;}.cls-5{fill:#fefefe;}</style></defs><title>logo</title><path class="cls-1" d="M847.17,1008h-654c.2-3.74-3-3.57-5.21-4.4-36.33-13.84-55.94-41.89-56.19-80.67-.12-18.85.09-37.71-.1-56.56-.06-6.64,2.63-14.58-1.33-19.6s-12-1.39-18.24-2.18c-13.09-1.66-20.86-9.25-20.86-20.73s7.78-19.05,20.88-20.71c6.21-.79,14.28,2.86,18.23-2.19s.93-13,1.36-19.61c.1-1.59,0-3.19,0-4.79,0-42.5-.08-85,.06-127.51,0-5.9-.56-9.91-8-9.32a61.51,61.51,0,0,1-16.21-.7c-10.81-2-17-10.73-16.24-21.52.72-10.09,8-17.32,18.74-18.31a56.63,56.63,0,0,1,11.49-.2c7.83.87,10.43-2,10.36-10.08-.38-43.77-.13-87.56-.25-131.34,0-7,2.79-15.45-1.39-20.49s-12.69-1.39-19.27-2.06c-11.75-1.21-19.42-8.57-19.78-19.46-.37-11.36,7.11-19.89,19-21.18a86.05,86.05,0,0,1,14.36-.21c5.47.33,7.17-1.93,7.15-7.25q-.21-74.3,0-148.6c0-5.3-1.73-7.53-7.16-7.33-6.36.24-12.78.5-19-1.48-8.89-2.82-14.33-10-14.39-19.25a19.67,19.67,0,0,1,14.11-19.46,33,33,0,0,1,14.2-1.56c9.3,1.22,12.84-1.63,12.46-11.85-.85-23-.53-46-.2-69,.55-37.75,23-67.69,58.57-78.79,2-.63,4.67-.44,4.81-3.6H847.17c-.21,3.13,2.47,3.11,4.33,4.15,8,4.49,17.24,6.42,24.65,12.33,21.94,17.5,32.72,40,32.7,68.14q-.26,406.77-.38,813.54c0,38.1-19.85,65.65-55.37,79C850.68,1004,846.94,1003.72,847.17,1008Zm20.75-391.41c.08-4.47.22-8.94.23-13.41q0-235.32.06-470.64c0-8.63.27-17.27-.14-25.87-1-20.63-15.11-36-35.5-39a87.09,87.09,0,0,0-12.39-.89Q685,66.69,549.87,66.69c-3.18,0-6.36.34-9.55.52a19.7,19.7,0,0,0-2.83-.41c-107.08-.1-214.16-.4-321.23-.1-27.44.08-43.59,17.4-43.93,45.08-.27,22.69.19,45.39-.18,68.08-.12,7.31,1.82,10.72,9.64,9.92A45.89,45.89,0,0,1,198,190.89c14.5,3.75,19.58,21.61,9.55,32.59-7.56,8.27-17.3,7.1-26.75,7-5.94-.08-8.61,1.53-8.58,8.06q.31,74.31.08,148.63c0,5.26,1.62,7.74,7.15,7.23a49.73,49.73,0,0,1,18.8,1.88c6.71,2,11.85,6.16,13.85,13.14s-.15,12.83-5.12,18.33c-7,7.71-15.79,7.74-24.69,7-8.13-.72-10.16,2.33-10.09,10.2.36,44.43.19,88.86.2,133.29,0,19.94,0,19.93,19.51,21,1.27.07,2.55.16,3.81.34,9.68,1.4,16.27,8.23,17.15,17.75.94,10.15-4.4,18-14.13,21.15-5.64,1.81-11.45,1.59-17.12,1.13-7.06-.56-9.4,1.73-9.35,9q.45,72.88.08,145.76c0,6.33,1.42,9.4,8.48,9.1,6.65-.29,13.35.7,20,1.13,1,.78,2,1.61,3,2.34,8,5.58,11,13.2,8.42,22.52-2.48,9-9.13,13.57-18.18,14.52a101.11,101.11,0,0,1-14.35.42c-5.27-.21-7.43,1.73-7.38,7.2.2,24.6.16,49.21.14,73.82q0,25.25,22.28,36.93c8.51,4.46,17.73,5,27,4.95q183.6-.06,367.2-.16c4.79,0,9.58-.23,14.37-.35q60.81.24,121.62.47c32.57.08,65.14.16,97.71,0C849,967,862,955.39,866.62,929.54c3.31-18.71,1.44-37.5,1.48-56.23C868.3,787.74,868,702.17,867.92,616.59Z" transform="translate(-91.11 -26)"/><path class="cls-2" d="M540.32,67.21c3.19-.18,6.37-.52,9.55-.52q135.15,0,270.31.13a87.09,87.09,0,0,1,12.39.89c20.39,2.92,34.53,18.33,35.5,39,.41,8.6.14,17.24.14,25.87q0,235.32-.06,470.64c0,4.47-.15,8.94-.23,13.41-4.53-.7-6.91-4.37-9.8-7.25Q822.9,574.22,787.78,539,704.91,456.11,622,373.24c-3.09-3.09-5.61-7.11-10.51-7.85a36.89,36.89,0,0,1-3-3.62c-34.88-55.07-110.06-64.35-153.09-25.65-30.23,27.2-42.93,60.37-34.54,100.3,7.76,37,31.83,60.7,65.68,75.47.78,4,4.5,4.83,7.15,6.91,8.27,6.5,19.06,9.53,25.49,18.53-8,.57-15.95.84-23.86,1.77-38,4.51-72.83,18-106.43,36-28.65,15.29-46.22,38.24-50.84,70-4,27.83-4.67,55.56,24,73.11.34,4.67,4,7.12,6.88,10q83.59,83.7,167.26,167.33,30.51,30.51,61,61c2.88,2.89,6.56,5.37,6.22,10.25-4.79.12-9.58.35-14.37.35q-183.6.11-367.2.16c-9.31,0-18.53-.49-27-4.95q-22.33-11.73-22.28-36.93c0-24.61.06-49.22-.14-73.82-.05-5.47,2.11-7.41,7.38-7.2A101.11,101.11,0,0,0,194.1,844c9.05-1,15.7-5.48,18.18-14.52,2.55-9.32-.44-16.94-8.42-22.52-1-.73-2-1.56-3-2.34.39-6.22,3.08-11.66,5.72-17.15,7.2-15,14.47-29.9,21.46-45,28-60.24,55.74-120.56,83.79-180.76,20.49-44,41.44-87.78,61.93-131.78,32.48-69.76,64.67-139.65,97.15-209.4,20.49-44,41.45-87.78,61.81-131.84C535.85,81.86,540.33,75.26,540.32,67.21Z" transform="translate(-91.11 -26)"/><path class="cls-3" d="M611.48,365.39c4.9.74,7.42,4.76,10.51,7.85Q704.93,456.07,787.78,539q35.16,35.18,70.34,70.33c2.89,2.88,5.27,6.55,9.8,7.25.1,85.58.38,171.15.18,256.72,0,18.73,1.83,37.52-1.48,56.23C862,955.39,849,967,822.73,967.2c-32.57.2-65.14.12-97.71,0q-60.81-.13-121.62-.47c.34-4.88-3.34-7.36-6.22-10.25q-30.46-30.56-61-61-83.64-83.64-167.26-167.33c-2.88-2.88-6.54-5.33-6.88-10,7.48,1.48,14.79,3.76,22.57,3.76q136-.1,272-.11c20.81,0,36-9.32,44.4-28.79,2.21-5.1,2.55-10.54,3.13-15.87,4.39-40.48-12-80.2-48.61-100.33-42.62-23.41-87.19-39.16-136.37-39.49-6.43-9-17.22-12-25.49-18.53-2.65-2.08-6.37-2.92-7.15-6.91,2.48.52,5,.94,7.45,1.58a102.29,102.29,0,0,0,127.5-115.24C619.66,386.69,614.59,376.39,611.48,365.39Z" transform="translate(-91.11 -26)"/><path class="cls-4" d="M540.32,67.21c0,8.05-4.47,14.65-7.62,21.48-20.36,44.06-41.32,87.84-61.81,131.84-32.48,69.75-64.67,139.64-97.15,209.4-20.49,44-41.44,87.79-61.93,131.78C283.76,621.91,256,682.23,228,742.47c-7,15.06-14.26,30-21.46,45-2.64,5.49-5.33,10.93-5.72,17.15-6.68-.43-13.38-1.42-20-1.13-7.06.3-8.5-2.77-8.48-9.1q.27-72.89-.08-145.76c-.05-7.31,2.29-9.6,9.35-9,5.67.46,11.48.68,17.12-1.13,9.73-3.12,15.07-11,14.13-21.15-.88-9.52-7.47-16.35-17.15-17.75-1.26-.18-2.54-.27-3.81-.34-19.5-1.06-19.5-1-19.51-21,0-44.43.16-88.86-.2-133.29-.07-7.87,2-10.92,10.09-10.2,8.9.78,17.72.75,24.69-7,5-5.5,7.15-11.29,5.12-18.33s-7.14-11.14-13.85-13.14a49.73,49.73,0,0,0-18.8-1.88c-5.53.51-7.16-2-7.15-7.23q.16-74.32-.08-148.63c0-6.53,2.64-8.14,8.58-8.06,9.45.11,19.19,1.28,26.75-7,10-11,4.95-28.84-9.55-32.59a45.89,45.89,0,0,0-16.19-1.11c-7.82.8-9.76-2.61-9.64-9.92.37-22.69-.09-45.39.18-68.08.34-27.68,16.49-45,43.93-45.08,107.07-.3,214.15,0,321.23.1A19.7,19.7,0,0,1,540.32,67.21Z" transform="translate(-91.11 -26)"/><path class="cls-1" d="M519.15,537.33c49.18.33,93.75,16.08,136.37,39.49,36.65,20.13,53,59.85,48.61,100.33-.58,5.33-.92,10.77-3.13,15.87-8.44,19.47-23.59,28.76-44.4,28.79q-136,.18-272,.11c-7.78,0-15.09-2.28-22.57-3.76-28.68-17.55-28.06-45.28-24-73.11,4.62-31.75,22.19-54.7,50.84-70,33.6-17.93,68.44-31.45,106.43-36C503.2,538.17,511.19,537.9,519.15,537.33Zm.8,143.21v-.25q66.64,0,133.27-.06c3.8,0,8.3,1.56,9.84-4.66,4.83-19.58-5-48.84-21.77-59-35.34-21.41-73.15-36.23-115-37.8-40.65-1.52-77.36,11.84-113.32,29.56-26.16,12.9-36.27,33.09-35.85,60.86.12,8.53,2.41,11.64,11.52,11.54C432.38,680.29,476.17,680.54,520,680.54Z" transform="translate(-91.11 -26)"/><path class="cls-1" d="M611.48,365.39c3.11,11,8.18,21.3,10,32.84A102.29,102.29,0,0,1,494,513.47c-2.45-.64-5-1.06-7.45-1.58-33.85-14.77-57.92-38.49-65.68-75.47-8.39-39.93,4.31-73.1,34.54-100.3,43-38.7,118.21-29.42,153.09,25.65A36.89,36.89,0,0,0,611.48,365.39Zm-91.12-11.82a61,61,0,0,0-61,60.62c-.25,33.68,27.61,61.8,61.15,61.72,33.28-.08,60.69-27.35,61.17-60.86S554.11,353.48,520.36,353.57Z" transform="translate(-91.11 -26)"/><path class="cls-5" d="M520,680.54c-43.78,0-87.57-.25-131.34.21-9.11.1-11.4-3-11.52-11.54-.42-27.77,9.69-48,35.85-60.86,36-17.72,72.67-31.08,113.32-29.56,41.88,1.57,79.69,16.39,115,37.8,16.73,10.14,26.6,39.4,21.77,59-1.54,6.22-6,4.65-9.84,4.66q-66.63.13-133.27.06Z" transform="translate(-91.11 -26)"/><path class="cls-5" d="M520.36,353.57c33.75-.09,61.77,28,61.3,61.48s-27.89,60.78-61.17,60.86c-33.54.08-61.4-28-61.15-61.72A61,61,0,0,1,520.36,353.57Z" transform="translate(-91.11 -26)"/></svg>